<?xml version="1.0" encoding="utf-8"?>
<!-- Generator: Adobe Illustrator 24.0.1, SVG Export Plug-In . SVG Version: 6.00 Build 0)  -->
<svg version="1.1" id="Livello_1" xmlns="http://www.w3.org/2000/svg" xmlns:xlink="http://www.w3.org/1999/xlink" x="0px" y="0px"
	 viewBox="0 0 309.5 53.1" style="enable-background:new 0 0 309.5 53.1;" xml:space="preserve">
<style type="text/css">
	.st0{fill:#FFFFFF;}
</style>
<g>
	<path class="st0" d="M296.5,13.3v-1h-14.7v1h2.3v20l-13.7-21.1H264v1h2.3v26.8h-3.9L252.4,11l-10.2,29.1h-3.8V13.3h2.3v-1h-6
		l-7.6,22l-8-22h-5.9v1h2.3v26.8h-4.5c-1.3,0-2.4-1.1-2.4-3.1v-4.2c0-3.2-1-6-4.3-6.9c2.8-0.9,4.8-3.6,4.8-6.4c0-4.1-3.1-7.2-9-7.2
		h-8.9v1h2.3v26.8h-4.6L178.9,11l-10.2,29.1h-2v1h5.7v-1h-2.5l2.9-8.1h9.3l2.7,8.1h-3.5v1h19.4v-1h-3.5V26.5h2.4
		c3.4,0,5.2,1.4,5.2,4.8v2.5c0,5.9,3.9,7.5,6,7.5h8.3v-1h-2.5V16.4l9.3,25.1l8.8-25.9v24.5h-2.3v1h13.5v-1h-2.5l2.9-8.1h9.3l2.7,8.1
		h-3.5v1h14.9v-1h-2.3V14.8l17.8,27.3V13.3h5.4v26.8h-2.3v1h8.3v-1h-2.3V13.3L296.5,13.3z M173,31l4.4-12.7l4.3,12.7H173z
		 M199.5,25.4h-2.4V13.3h2c3.5,0,5.8,2.2,5.8,6.4C204.9,21.9,203.1,25.4,199.5,25.4z M246.6,31l4.4-12.7l4.3,12.7H246.6z"/>
	<g>
		<path class="st0" d="M140.9,11.6c-7.6,0-12.6,8.5-12.6,15.2c0,7.3,5.3,15.1,12.6,15.1c7.2,0,12.6-7.3,12.6-15.1
			C153.4,20,148.1,11.6,140.9,11.6z M140.9,40.9c-7.3,0-7.7-9.6-7.7-14.1c0-4.5,0.5-14.1,7.7-14.1c7.2,0,7.8,9.6,7.8,14.1
			C148.6,31.3,148.2,40.9,140.9,40.9z"/>
		<polygon class="st0" points="118.9,13.3 121.1,13.3 121.1,40.1 118.9,40.1 118.9,41.2 127.1,41.2 127.1,40.1 124.9,40.1 
			124.9,13.3 127.1,13.3 127.1,12.3 118.9,12.3 		"/>
		<path class="st0" d="M93.2,40.4c-1.3,0-2.4-1.2-2.4-3.1v-4.4c0-3.3-1.1-6-4.3-6.9c2.8-0.9,4.8-3.6,4.8-6.4c0-4.1-3.1-7.2-9-7.2
			h-8.9v1h2.3v26.8h-2.3v1h9.5l0-1h-3.5V26.5h2.4c3.4,0,5.2,1.4,5.2,4.8V34c0,5.9,3.9,7.5,6,7.5c1.4,0,2-0.4,2.6-1l-0.6-0.8
			C94.1,40.3,93.6,40.4,93.2,40.4z M81.8,25.4h-2.4V13.3h2c3.5,0,5.8,2.2,5.8,6.4C87.2,21.9,85.4,25.4,81.8,25.4z"/>
		<path class="st0" d="M59.7,11.6c-7.6,0-12.6,8.5-12.6,15.2c0,7.3,5.3,15.1,12.6,15.1c7.2,0,12.6-7.3,12.6-15.1
			C72.3,20,67,11.6,59.7,11.6z M59.7,40.9c-7.3,0-7.7-9.6-7.7-14.1c0-4.5,0.5-14.1,7.7-14.1c7.2,0,7.8,9.6,7.8,14.1
			C67.5,31.3,67,40.9,59.7,40.9z"/>
		<polygon class="st0" points="37.7,13.3 40,13.3 40,40.1 37.7,40.1 37.7,41.2 46,41.2 46,40.1 43.7,40.1 43.7,13.3 46,13.3 
			46,12.3 37.7,12.3 		"/>
		<path class="st0" d="M28.4,29.9h2.7v5.2c0,2.7-2.1,5.8-5.7,5.8c-6.9,0-7.6-8.7-7.6-14.1c0-5,0.5-14.1,8.1-14.1
			c2.9,0,6.1,2.6,6.7,8.2h0.9v-9.2h-0.9c-0.2,1-0.7,1.4-1.7,1.4c-1,0-2.2-1.5-5-1.5c-8.6,0-12.9,9.1-12.9,15.2
			c0,6.4,4.8,15.1,12.4,15.1c4.1,0,4.5-2.5,7-2.5c0.8,0,1.3,0.7,1.4,1.8h1.1V29.9h2.3v-1h-8.7V29.9z"/>
		<path class="st0" d="M109.5,29.9h2.7v5.2c0,2.7-2.1,5.8-5.7,5.8c-6.9,0-7.6-8.7-7.6-14.1c0-5,0.5-14.1,8.1-14.1
			c2.9,0,6.1,2.6,6.7,8.2h0.9v-9.2h-0.9c-0.2,1-0.7,1.4-1.7,1.4c-1,0-2.2-1.5-5-1.5c-8.6,0-12.9,9.1-12.9,15.2
			c0,6.4,4.8,15.1,12.4,15.1c4.1,0,4.5-2.5,7-2.5c0.8,0,1.3,0.7,1.4,1.8h1.1l0-11.3h2.3v-1h-8.7V29.9z"/>
	</g>
</g>
</svg>
